<svg id="Layer_1" data-name="Layer 1" xmlns="http://www.w3.org/2000/svg" xmlns:xlink="http://www.w3.org/1999/xlink" viewBox="0 0 427.55 319.61">
  <defs>
    <style>
      .cls-1 {
        fill: url(#linear-gradient);
      }

      .cls-2 {
        fill: url(#linear-gradient-2);
      }

      .cls-3 {
        fill: #e6e7e8;
      }

      .cls-4 {
        opacity: 0.5;
      }

      .cls-5 {
        fill: #fff;
      }
    </style>
    <linearGradient id="linear-gradient" x1="214.54" y1="69.96" x2="89.38" y2="219.11" gradientUnits="userSpaceOnUse">
      <stop offset="0" stop-color="#8f0507"/>
      <stop offset="0.13" stop-color="#ed1c24"/>
      <stop offset="1" stop-color="#ed1c24"/>
    </linearGradient>
    <linearGradient id="linear-gradient-2" x1="166.98" y1="115.93" x2="347.22" y2="115.93" xlink:href="#linear-gradient"/>
  </defs>
  <title>MILES</title>
  <polygon class="cls-1" points="164.87 170.34 164.87 30.76 131.16 0 104.08 0 104.08 231.44 248.19 231.44 248.19 170.34 164.87 170.34"/>
  <polygon class="cls-2" points="319.77 0.26 225.69 86.01 166.98 32.68 166.98 115.02 225.69 168.07 286.15 112.85 286.15 231.61 347.22 231.61 347.22 0.26 319.77 0.26"/>
  <g>
    <path class="cls-3" d="M200,390.08h10.9L241,427.9l30.12-37.82H282v45.11h-7V395.57h-.14l-31.4,39.62h-5l-31.4-39.62H207v39.62h-7Z" transform="translate(-200 -142.45)"/>
    <path class="cls-3" d="M329.8,390.08h7v45.11h-7Z" transform="translate(-200 -142.45)"/>
    <path class="cls-3" d="M385,390.08h7v40.13h40v5H385Z" transform="translate(-200 -142.45)"/>
    <path class="cls-3" d="M473.76,390.08h50.63v5H480.74v14.39h41.94v5H480.74v15.77h43.93v5H473.76Z" transform="translate(-200 -142.45)"/>
    <path class="cls-3" d="M568.32,421h6.55v3.17c0,4.43,2.7,6.55,11.39,6.55H607.9c10.11,0,13.1-1.87,13.1-8.35,0-5.67-2.56-7.11-11.25-7.11H596.51c-21.29,0-28.26-1.12-28.26-13.08,0-10.28,7-12.58,21.36-12.58h15c17.3,0,21.64,3.86,21.64,11.9V403h-6.55c-.14-7.16-1-8.47-19.29-8.47H593c-13.45,0-18.22.62-18.22,8,0,5.35,1.92,7.16,12.81,7.16h20.65c13.6,0,19.29,3.43,19.29,11.09v2.93c0,11.09-10.39,11.9-20.71,11.9H587.47c-10.18,0-19.15-1.56-19.15-11.4Z" transform="translate(-200 -142.45)"/>
  </g>
  <g class="cls-4">
    <path class="cls-5" d="M392.83,459.91l.62.48a8.14,8.14,0,0,1-10.14-.21,5.88,5.88,0,0,1,0-9.07,8.12,8.12,0,0,1,10.14-.2l-.62.47a6.86,6.86,0,0,0-4.32-1.42,6.78,6.78,0,0,0-4.61,1.66,5.2,5.2,0,0,0,0,8.05,6.79,6.79,0,0,0,4.61,1.67A6.87,6.87,0,0,0,392.83,459.91Z" transform="translate(-200 -142.45)"/>
    <path class="cls-5" d="M395.22,461.91V449.38H396V461.2h5.47v.71Z" transform="translate(-200 -142.45)"/>
    <path class="cls-5" d="M404.08,449.38v12.53h-.82V449.38Z" transform="translate(-200 -142.45)"/>
    <path class="cls-5" d="M407.26,457.57v4.34h-.81V449.38h3.76a5.05,5.05,0,0,1,2.8,1.2,3.74,3.74,0,0,1,0,5.79,4.87,4.87,0,0,1-3.31,1.2Zm0-7.47v6.75h2.44a4,4,0,0,0,2.73-1,3.09,3.09,0,0,0,0-4.78,4.07,4.07,0,0,0-2.73-1Z" transform="translate(-200 -142.45)"/>
    <path class="cls-5" d="M428.73,449.38v12.53h-.81V450.14l-5.55,6.35-5.56-6.35v11.77H416V449.38h1.18l5.19,5.94,5.19-5.94Z" transform="translate(-200 -142.45)"/>
    <path class="cls-5" d="M435.76,449.38,441,461.91h-.85l-2.3-5.51h-5l-2.33,5.51h-.86l5.26-12.53Zm1.77,6.32-2.18-5.25-2.19,5.25Z" transform="translate(-200 -142.45)"/>
    <path class="cls-5" d="M448.73,449.38l-3.72,4.7,6.27,7.83h-1l-5.8-7.24L443,456.6v5.31h-.81V449.38H443v6l4.8-6Z" transform="translate(-200 -142.45)"/>
    <path class="cls-5" d="M459.45,449.38v.71h-6.37v5.2h6.37V456h-6.37v5.2h6.37v.71h-7.18V449.38Z" transform="translate(-200 -142.45)"/>
    <path class="cls-5" d="M465.21,457.57h-2.68v4.34h-.81V449.38h3.76a5,5,0,0,1,2.79,1.2,3.73,3.73,0,0,1,0,5.78,4.65,4.65,0,0,1-2.18,1.09l3.31,4.46h-1Zm-2.68-7.47v6.75H465a4,4,0,0,0,2.73-1,3.08,3.08,0,0,0,0-4.78,4,4,0,0,0-2.73-1Z" transform="translate(-200 -142.45)"/>
  </g>
</svg>
